ffmpeg version 3.4.8-0ubuntu0.2 Copyright (c) 2000-2020 the FFmpeg developers
  built with gcc 7 (Ubuntu 7.5.0-3ubuntu1~18.04)
  configuration: --prefix=/usr --extra-version=0ubuntu0.2 --toolchain=hardened --libdir=/usr/lib/x86_64-linux-gnu --incdir=/usr/include/x86_64-linux-gnu --enable-gpl --disable-stripping --enable-avresample --enable-avisynth --enable-gnutls --enable-ladspa --enable-libass --enable-libbluray --enable-libbs2b --enable-libcaca --enable-libcdio --enable-libflite --enable-libfontconfig --enable-libfreetype --enable-libfribidi --enable-libgme --enable-libgsm --enable-libmp3lame --enable-libmysofa --enable-libopenjpeg --enable-libopenmpt --enable-libopus --enable-libpulse --enable-librubberband --enable-librsvg --enable-libshine --enable-libsnappy --enable-libsoxr --enable-libspeex --enable-libssh --enable-libtheora --enable-libtwolame --enable-libvorbis --enable-libvpx --enable-libwavpack --enable-libwebp --enable-libx265 --enable-libxml2 --enable-libxvid --enable-libzmq --enable-libzvbi --enable-omx --enable-openal --enable-opengl --enable-sdl2 --enable-libdc1394 --enable-libdrm --enable-libiec61883 --enable-chromaprint --enable-frei0r --enable-libopencv --enable-libx264 --enable-shared
  libavutil      55. 78.100 / 55. 78.100
  libavcodec     57.107.100 / 57.107.100
  libavformat    57. 83.100 / 57. 83.100
  libavdevice    57. 10.100 / 57. 10.100
  libavfilter     6.107.100 /  6.107.100
  libavresample   3.  7.  0 /  3.  7.  0
  libswscale      4.  8.100 /  4.  8.100
  libswresample   2.  9.100 /  2.  9.100
  libpostproc    54.  7.100 / 54.  7.100
[rawvideo @ 0x56237a3e9a20] Estimating duration from bitrate, this may be inaccurate
Input #0, rawvideo, from '../../SVC-Encoder-20220109T061506Z-001/SVC-Encoder/Dataset/RollerCoaster/ERP_8x8/tile_yuv/Tile_61_480x240.yuv':
  Duration: 00:00:10.00, start: 0.000000, bitrate: 41472 kb/s
    Stream #0:0: Video: rawvideo (I420 / 0x30323449), yuv420p, 480x240, 41472 kb/s, 30 tbr, 30 tbn, 30 tbc
Stream mapping:
  Stream #0:0 -> #0:0 (rawvideo (native) -> h264 (libx264))
Press [q] to stop, [?] for help
[libx264 @ 0x56237a3f6c60] using cpu capabilities: MMX2 SSE2Fast LZCNT SSSE3 SSE4.2 AVX
[libx264 @ 0x56237a3f6c60] profile High, level 2.1
Output #0, rawvideo, to 'RollerCoaster_Tile_61_480x240_x264_QP_28.h264':
  Metadata:
    encoder         : Lavf57.83.100
    Stream #0:0: Video: h264 (libx264), yuv420p, 480x240, q=-1--1, 30 fps, 30 tbn, 30 tbc
    Metadata:
      encoder         : Lavc57.107.100 libx264
    Side data:
      cpb: bitrate max/min/avg: 0/0/0 buffer size: 0 vbv_delay: -1
frame=  199 fps=0.0 q=34.0 PSNR=Y:nan U:nan V:nan *:nan size=      57kB time=00:00:05.20 bitrate=  89.5kbits/s speed=10.4x    frame=  300 fps=0.0 q=34.0 LPSNR=Y:inf U:inf V:inf *:inf size=     102kB time=00:00:09.93 bitrate=  84.2kbits/s speed=12.1x    
video:102kB audio:0kB subtitle:0kB other streams:0kB global headers:0kB muxing overhead: 0.000000%
[libx264 @ 0x56237a3f6c60] frame I:2     Avg QP:26.61  size:  6314  PSNR Mean Y:44.89 U:49.46 V:43.52 Avg:45.09 Global:45.06
[libx264 @ 0x56237a3f6c60] frame P:78    Avg QP:26.99  size:   672  PSNR Mean Y:43.67 U:48.63 V:43.76 Avg:44.20 Global:44.17
[libx264 @ 0x56237a3f6c60] frame B:220   Avg QP:33.48  size:   179  PSNR Mean Y:43.32 U:48.61 V:43.68 Avg:43.92 Global:43.87
[libx264 @ 0x56237a3f6c60] consecutive B-frames:  0.7%  4.0%  2.0% 93.3%
[libx264 @ 0x56237a3f6c60] mb I  I16..4: 23.4% 33.3% 43.2%
[libx264 @ 0x56237a3f6c60] mb P  I16..4:  1.1%  0.2%  0.1%  P16..4: 38.2%  8.4%  1.5%  0.0%  0.0%    skip:50.5%
[libx264 @ 0x56237a3f6c60] mb B  I16..4:  0.1%  0.0%  0.0%  B16..8: 30.3%  1.4%  0.0%  direct: 0.0%  skip:68.1%  L0:47.7% L1:51.3% BI: 1.0%
[libx264 @ 0x56237a3f6c60] 8x8 transform intra:26.5% inter:85.8%
[libx264 @ 0x56237a3f6c60] coded y,uvDC,uvAC intra: 32.1% 56.9% 32.5% inter: 2.3% 2.8% 0.0%
[libx264 @ 0x56237a3f6c60] i16 v,h,dc,p: 13% 76%  8%  4%
[libx264 @ 0x56237a3f6c60] i8 v,h,dc,ddl,ddr,vr,hd,vl,hu:  1% 36% 56%  1%  1%  0%  2%  0%  3%
[libx264 @ 0x56237a3f6c60] i4 v,h,dc,ddl,ddr,vr,hd,vl,hu:  5% 75%  9%  2%  1%  0%  3%  1%  4%
[libx264 @ 0x56237a3f6c60] i8c dc,h,v,p: 26% 68%  2%  4%
[libx264 @ 0x56237a3f6c60] Weighted P-Frames: Y:2.6% UV:0.0%
[libx264 @ 0x56237a3f6c60] ref P L0: 51.8% 11.4% 27.3%  9.3%  0.2%
[libx264 @ 0x56237a3f6c60] ref B L0: 66.6% 26.5%  6.8%
[libx264 @ 0x56237a3f6c60] ref B L1: 83.4% 16.6%
[libx264 @ 0x56237a3f6c60] PSNR Mean Y:43.421 U:48.623 V:43.699 Avg:43.998 Global:43.957 kb/s:83.63
